<?xml version="1.0" encoding="UTF-8" standalone="no"?>
<!-- Created with Inkscape (http://www.inkscape.org/) -->

<svg
   width="96"
   height="96"
   viewBox="0 0 25.400001 25.4"
   version="1.1"
   id="svg1"
   xml:space="preserve"
   xmlns:xlink="http://www.w3.org/1999/xlink"
   xmlns="http://www.w3.org/2000/svg"
   xmlns:svg="http://www.w3.org/2000/svg"><defs
     id="defs1"><linearGradient
       id="linearGradient19"><stop
         style="stop-color:#2846ff;stop-opacity:1;"
         offset="0"
         id="stop22" /><stop
         style="stop-color:#008fc6;stop-opacity:1;"
         offset="0.54662377"
         id="stop20" /><stop
         style="stop-color:#4f44b1;stop-opacity:1;"
         offset="1"
         id="stop21" /></linearGradient><linearGradient
       id="linearGradient17"><stop
         style="stop-color:#4b51ff;stop-opacity:1;"
         offset="0"
         id="stop17" /><stop
         style="stop-color:#58a4ff;stop-opacity:1;"
         offset="0.5594855"
         id="stop18" /><stop
         style="stop-color:#0c2a8d;stop-opacity:1;"
         offset="1"
         id="stop19" /></linearGradient><linearGradient
       xlink:href="#linearGradient17"
       id="linearGradient18"
       x1="43.310997"
       y1="92.423241"
       x2="58.722504"
       y2="92.423241"
       gradientUnits="userSpaceOnUse" /><linearGradient
       xlink:href="#linearGradient19"
       id="linearGradient21"
       x1="38.756008"
       y1="92.294739"
       x2="63.094059"
       y2="92.294739"
       gradientUnits="userSpaceOnUse" /></defs><g
     id="layer1"
     transform="translate(-38.315208,-79.522129)"
     style="stroke-width:1.00013;stroke-dasharray:none"><path
       id="circle3"
       style="display:inline;fill:url(#linearGradient21);fill-opacity:1;stroke:none;stroke-width:1.00013;stroke-dasharray:none;stroke-opacity:1;paint-order:stroke fill markers"
       d="M 50.925291,80.12571 A 12.169029,12.169029 0 0 0 38.756008,92.294993 12.169029,12.169029 0 0 0 50.925291,104.46376 12.169029,12.169029 0 0 0 63.094058,92.294993 12.169029,12.169029 0 0 0 50.925291,80.12571 Z m 0,1.590084 A 10.686924,10.579039 0 0 1 61.611978,92.294993 10.686924,10.579039 0 0 1 50.925291,102.87419 10.686924,10.579039 0 0 1 40.238088,92.294993 10.686924,10.579039 0 0 1 50.925291,81.715794 Z" /><path
       id="path22"
       style="color:#000000;display:inline;fill:url(#linearGradient18);stroke:none;stroke-width:0.206375;stroke-dasharray:none;stroke-opacity:1"
       d="m 49.781175,84.736281 c 0,0 -3.047277,0.60081 -4.781104,2.788977 -3.79e-4,4.47e-4 3.79e-4,0.0016 0,0.0021 -1.721322,2.031635 -1.689302,4.806942 -1.689302,4.806942 l 0.617016,0.103353 c 0.350125,-0.982129 0.691522,-1.57945 0.976685,-1.906344 0.285163,-0.326893 0.48414,-0.378745 0.628902,-0.371036 0.144762,0.0077 0.287559,0.0986 0.398426,0.218591 0.05543,0.05999 0.10034,0.124649 0.126607,0.172082 0.01313,0.02372 0.01858,0.05213 0.02067,0.0615 0.0021,0.0094 10e-4,-3.75e-4 10e-4,-0.05374 v 5.609477 c 0,0.108417 -0.0078,0.191507 -0.01964,0.234094 -0.01179,0.04259 -0.01014,0.03975 -0.03307,0.05478 -0.04587,0.03006 -0.323935,0.09653 -0.957048,-0.01964 l -0.839742,-0.151929 0.534851,0.664042 c 1.25645,1.562749 2.598588,2.349693 3.715019,2.741952 1.11643,0.392268 2.030171,0.395148 2.341976,0.411858 l 0.144177,0.008 1.937867,-1.994192 1.212846,1.386995 0.220658,-0.117305 c 1.668988,-0.878415 2.705572,-2.0433 3.330029,-3.056661 0.624457,-1.013361 0.838752,-1.858943 0.890385,-2.176095 l 0.164331,-1.001489 -0.705383,0.730188 c -1.286364,1.334008 -2.021367,1.611471 -2.31252,1.615405 -0.145577,0.002 -0.19428,-0.0398 -0.230477,-0.07441 -0.01765,-0.01688 -0.01408,-0.01418 -0.01912,-0.02119 V 89.64273 l -0.0021,-0.01757 c 0,0 -0.05121,-0.399 0.165882,-1.078487 0.217096,-0.679486 0.704393,-1.608122 1.816426,-2.579687 l 0.845944,-0.740524 -1.107426,0.187586 c -2.854127,0.483362 -4.225565,2.189649 -4.478797,2.519743 -0.237414,-0.156524 -0.68644,-0.2998 -1.35909,-0.285254 -0.423877,0.0092 -0.764607,0.08902 -1.176156,0.170015 l 0.914156,0.408244 c 0.74383,0.331382 0.759644,1.241785 0.759644,1.241785 v 5.783626 c -0.07965,0.07278 -0.427048,0.401775 -0.904338,0.610816 -0.264462,0.115829 -0.529386,0.169774 -0.737939,0.127124 -0.196605,-0.04021 -0.370698,-0.174159 -0.538985,-0.489893 v -7.636743 c 0,0 -0.57759,0.247421 -0.703317,0.255798 -0.06286,0.0042 -0.113421,-0.0047 -0.138492,-0.01602 -0.02507,-0.01134 -0.03496,-0.01158 -0.05684,-0.06615 -0.298074,-0.7434 -0.01,-1.383169 0.386539,-1.894458 0.396523,-0.51129 0.879016,-0.830441 0.879016,-0.830441 z m -1.16582,1.060401 c -0.458264,0.606814 -0.843566,1.498125 -0.451136,2.476851 0.07683,0.191618 0.226909,0.336968 0.384473,0.408244 0.157564,0.07128 0.312089,0.08109 0.443384,0.07235 0.01413,-9.41e-4 0.01153,-0.0048 0.02532,-0.0062 v 6.935494 l 0.03152,0.06459 c 0.241346,0.493184 0.617341,0.782101 1.015442,0.863513 0.3981,0.08141 0.784331,-0.01968 1.119311,-0.166398 0.669961,-0.293425 1.187525,-0.800468 1.187525,-0.800468 l 0.09767,-0.09405 v -6.085933 -0.0021 c 0,0 -0.120136,-0.5005 -0.410311,-1.015442 0.142067,0.07495 0.486276,0.12299 0.486276,0.12299 l 0.263549,0.217041 0.197404,-0.27957 c 0,0 1.099478,-1.423816 3.234428,-2.142505 -0.610901,0.727479 -1.047739,1.429691 -1.226281,1.988509 -0.226966,0.710376 -0.200848,1.214261 -0.193787,1.306381 v 5.882845 l 0.01964,0.05271 c 0,0 0.05853,0.156514 0.195337,0.287321 0.136807,0.130808 0.373851,0.2537 0.677478,0.249597 0.420453,-0.0057 1.019976,-0.350392 1.744596,-0.933276 -0.123455,0.307219 -0.09465,0.414592 -0.330212,0.79685 -0.544523,0.883646 -1.465617,1.883107 -2.885095,2.685624 l -1.314132,-1.500166 -2.199349,2.265494 c -0.391673,-0.01743 -1.080276,-0.01729 -2.037085,-0.353466 -0.87581,-0.307717 -1.911234,-0.979984 -2.937288,-2.072225 0.04764,-0.0042 0.101745,-0.0027 0.158129,5.16e-4 0.05638,0.0032 0.114978,0.0078 0.172083,0.01034 0.11421,0.0051 0.221973,0.0013 0.290938,-0.04393 0.157655,-0.103319 0.255678,-0.268111 0.296623,-0.415996 0.04095,-0.147885 0.04289,-0.282289 0.04289,-0.404626 v -5.60896 c 0,-0.170461 -0.04892,-0.222221 -0.101285,-0.316777 -0.05236,-0.09455 -0.122822,-0.194823 -0.214974,-0.294555 -0.184302,-0.199464 -0.463811,-0.40259 -0.831991,-0.422197 -0.307254,-0.01636 -0.63866,0.134197 -0.953947,0.427881 -0.04504,0.04196 -0.08957,0.08715 -0.133842,0.134876 0.225438,-0.718363 0.431933,-1.475624 1.005624,-2.152324 l 0.0021,-0.0041 0.0041,-0.0036 c 0.928838,-1.17703 2.147297,-1.767415 3.124874,-2.131136 z" /></g></svg>
