<?xml version="1.0" encoding="UTF-8" standalone="no"?>
<!-- Created with Inkscape (http://www.inkscape.org/) -->

<svg
   width="96"
   height="96"
   viewBox="0 0 25.400001 25.4"
   version="1.1"
   id="svg1"
   xml:space="preserve"
   xmlns:xlink="http://www.w3.org/1999/xlink"
   xmlns="http://www.w3.org/2000/svg"
   xmlns:svg="http://www.w3.org/2000/svg"><defs
     id="defs1"><linearGradient
       id="linearGradient19"><stop
         style="stop-color:#730062;stop-opacity:1;"
         offset="0"
         id="stop25" /><stop
         style="stop-color:#f500dc;stop-opacity:1;"
         offset="0.52090031"
         id="stop24" /><stop
         style="stop-color:#ff75fb;stop-opacity:1;"
         offset="1"
         id="stop26" /></linearGradient><linearGradient
       id="linearGradient17"><stop
         style="stop-color:#a100c4;stop-opacity:1;"
         offset="0"
         id="stop17" /><stop
         style="stop-color:#fc0eff;stop-opacity:1;"
         offset="0.5594855"
         id="stop18" /><stop
         style="stop-color:#f079f4;stop-opacity:1;"
         offset="1"
         id="stop19" /></linearGradient><linearGradient
       xlink:href="#linearGradient17"
       id="linearGradient18"
       x1="50.420368"
       y1="100.18742"
       x2="50.86478"
       y2="85.126785"
       gradientUnits="userSpaceOnUse" /><linearGradient
       xlink:href="#linearGradient19"
       id="linearGradient26"
       gradientUnits="userSpaceOnUse"
       x1="38.502296"
       y1="105.52745"
       x2="38.034576"
       y2="80.176941" /></defs><g
     id="layer1"
     transform="translate(-38.315208,-79.522129)"
     style="stroke-width:1.00013;stroke-dasharray:none"><path
       id="path1"
       style="color:#000000;display:inline;fill:url(#linearGradient18);stroke-width:1.00013;stroke-dasharray:none;-inkscape-stroke:none"
       d="m 49.884528,84.543011 -0.136426,0.02739 c 0,0 -3.092231,0.597512 -4.877222,2.845821 -10e-7,10e-7 3.2e-5,0.0015 0,0.0016 -9.8e-5,1.95e-4 -0.0032,0.0034 -0.0036,0.0041 l -0.0021,0.0041 c -0.0026,0.0053 -0.0043,0.01214 -0.0098,0.02325 0.0034,-0.0075 0.0044,-0.01476 0.0057,-0.01757 -1.759515,2.089097 -1.720309,4.904093 -1.720309,4.904093 l 0.0021,0.142627 0.89607,0.150379 0.04909,-0.134876 c 0.345725,-0.969788 0.681095,-1.551225 0.943095,-1.851566 0.265343,-0.304172 0.396208,-0.317253 0.492477,-0.312126 0.08007,0.0043 0.192575,0.06574 0.283187,0.163814 0.04521,0.04893 0.08512,0.106083 0.103352,0.13901 v 5.535063 c 0,0.07965 -0.008,0.122516 -0.01189,0.150378 -0.0315,0.0057 -0.07406,0.01108 -0.136426,0.01344 -0.139022,0.0053 -0.353836,-0.0042 -0.660425,-0.06046 l -1.286743,-0.234611 0.818038,1.018025 c 1.275952,1.587006 2.647773,2.395061 3.790983,2.796729 1.143446,0.401759 2.093812,0.404309 2.389002,0.420129 l 0.222725,0.0134 1.862935,-1.919773 1.179773,1.351338 0.337964,-0.179834 c 1.698013,-0.893691 2.758735,-2.081853 3.396692,-3.117122 0.637451,-1.034446 0.856187,-1.894728 0.912089,-2.238106 l 0.253732,-1.537374 -1.084172,1.121378 c -1.272133,1.319251 -2.00363,1.560163 -2.191081,1.562696 -0.04893,6.72e-4 -0.06673,-0.0044 -0.07803,-0.0083 v -5.687508 l -0.0041,-0.02894 c 0,0 -0.0487,-0.352313 0.160197,-1.00614 0.20835,-0.652115 0.675556,-1.551209 1.765783,-2.503723 l 1.296562,-1.134814 -1.697054,0.288871 c -2.826983,0.478765 -4.193783,2.104944 -4.511869,2.511991 -0.287835,-0.15601 -0.678397,-0.294622 -1.302763,-0.28112 -0.443151,0.0096 -0.796853,0.09329 -1.205095,0.173633 l -0.304374,0.06046 v -0.10542 l -0.236678,0.09974 c 0,0 -0.143558,0.06123 -0.300757,0.12299 -0.0786,0.03088 -0.158804,0.06286 -0.226343,0.08578 -0.06754,0.02292 -0.136597,0.03615 -0.121439,0.03514 -0.02121,0.0014 -0.01704,-7e-5 -0.02894,-0.0021 -0.253818,-0.664988 -0.009,-1.220757 0.364836,-1.702738 0.376668,-0.48569 0.840258,-0.793234 0.840258,-0.793234 l 0.115239,-0.07596 z M 48.252069,86.1579 v 5.17e-4 c -0.338854,0.604497 -0.580937,1.338388 -0.244429,2.177644 0.09417,0.234864 0.271233,0.409449 0.470772,0.499712 0.133628,0.06045 0.251585,0.05742 0.369487,0.06253 v 6.82439 l 0.04857,0.09973 c 0.26039,0.532099 0.680174,0.862006 1.134815,0.954981 0.446119,0.09123 0.867987,-0.02332 1.220597,-0.177767 0.704986,-0.308765 1.23469,-0.830089 1.236617,-0.831991 l 0.0016,-0.0021 0.148828,-0.142627 v -6.15828 -0.02119 l -0.0062,-0.01964 c 0,0 -0.156489,-0.396502 -0.286805,-0.716752 0.06562,0.01267 0.101443,0.01947 0.126608,0.02325 l 0.369486,0.302824 0.29869,-0.42168 c 0,0 0.975283,-1.056863 2.625163,-1.793172 -0.376211,0.519883 -0.774018,1.051999 -0.912089,1.484147 -0.235177,0.736075 -0.211315,1.264182 -0.203089,1.371492 v 5.900415 l 0.03101,0.0801 c 0,0 0.06802,0.190639 0.236161,0.3514 0.169134,0.161718 0.446355,0.301359 0.796851,0.296622 0.399613,-0.0054 0.913998,-0.377079 1.44539,-0.759643 -0.03361,0.09697 -0.07322,0.193633 -0.177767,0.363285 -0.513086,0.83263 -1.393828,1.773789 -2.714563,2.548682 l -1.334286,-1.523421 -2.265494,2.334224 c -0.40369,-0.01629 -1.019023,-0.0158 -1.91978,-0.332279 -0.732925,-0.257515 -1.619883,-0.921041 -2.498039,-1.7632 0.0731,-0.0058 0.144453,0.0073 0.218592,-0.04134 0.199782,-0.130927 0.316562,-0.327909 0.367419,-0.511597 0.04762,-0.171989 0.04858,-0.324941 0.04858,-0.449068 v -5.609477 c 0,-0.202859 -0.07959,-0.32006 -0.12299,-0.398425 -0.05897,-0.106486 -0.13688,-0.218462 -0.238228,-0.328146 -0.203326,-0.220054 -0.521578,-0.45379 -0.947229,-0.476457 -0.245779,-0.01309 -0.481331,0.169755 -0.71882,0.314193 0.181264,-0.558959 0.331894,-1.124418 0.756027,-1.624707 l 0.0098,-0.01189 c 6.19e-4,-7.84e-4 8.5e-4,-0.0013 0.0016,-0.0021 l 0.0021,-0.0021 c 0.77798,-0.983671 1.74954,-1.505041 2.625162,-1.871203 z m 1.570447,1.695504 1.18339,0.527616 c 0.639335,0.284829 0.658359,1.089856 0.658358,1.089856 v 5.693193 c -0.109008,0.09975 -0.386328,0.360605 -0.803052,0.543119 -0.244092,0.106908 -0.483138,0.148183 -0.636653,0.116789 -0.136721,-0.02796 -0.257096,-0.125993 -0.402043,-0.384473 z m -3.819405,2.612243 c 0.0083,0.01133 0.01348,0.02076 0.02067,0.03152 0.0088,0.01866 0.01539,0.03257 0.02894,0.0615 h -0.01344 c -0.02809,-0.03914 -0.05891,-0.0801 -0.05891,-0.0801 z m -0.07751,0.08113 c 0,0 0.01949,0.0084 0.02739,0.01189 h -0.03101 c 0.0016,-0.0051 0.0036,-0.01191 0.0036,-0.01189 z" /><path
       id="path24"
       style="display:inline;fill:url(#linearGradient26);fill-opacity:1;stroke:none;stroke-width:1.00013;stroke-dasharray:none;stroke-opacity:1;paint-order:stroke fill markers"
       d="M 50.925291,80.12571 A 12.169029,12.169029 0 0 0 38.756008,92.294993 12.169029,12.169029 0 0 0 50.925291,104.46376 12.169029,12.169029 0 0 0 63.094058,92.294993 12.169029,12.169029 0 0 0 50.925291,80.12571 Z m 0,1.590084 A 10.686924,10.579039 0 0 1 61.611978,92.294993 10.686924,10.579039 0 0 1 50.925291,102.87419 10.686924,10.579039 0 0 1 40.238088,92.294993 10.686924,10.579039 0 0 1 50.925291,81.715794 Z" /></g></svg>
